<svg xmlns="http://www.w3.org/2000/svg" xmlns:xlink="http://www.w3.org/1999/xlink" version="1.1" viewBox="0 0 40 40"><title>ic-smiley-party</title><defs><circle id="path-1" cx="14" cy="14" r="14"/><linearGradient id="linearGradient-3" x1="0%" x2="100%" y1="0%" y2="100%"><stop offset="0%" stop-color="#FEDB29"/><stop offset="24.324%" stop-color="#FEDB29"/><stop offset="86.007%" stop-color="#F9C631"/><stop offset="100%" stop-color="#F9C631"/></linearGradient><path id="path-4" d="M5.99059906,6 C8.99774596,6 11.4941469,3.83842745 11.9763591,1.00140583 C12.0317105,0.675754333 12.0758222,0 11.0511383,0 C7.04076423,0 5.06891325,0 0.933529049,0 C-0.078416485,0 -0.00450248112,0.946386276 0.00465854999,1.00034328 C0.486427941,3.83788772 2.98307674,6 5.99059906,6 Z"/><path id="path-6" d="M6,0 L11.7564697,12.5922774 C11.8711992,12.8434158 11.7606928,13.1400382 11.5095833,13.2548311 C11.483691,13.2666676 11.4568349,13.2762707 11.429308,13.2835358 C9.61953864,13.7611786 7.80976932,14 6,14 C4.19023982,14 2.38047963,13.761181 0.570719448,13.283543 C0.303707349,13.2130883 0.144381445,12.9395084 0.214851134,12.6725003 C0.222117437,12.6449684 0.231722258,12.6181076 0.243560851,12.5922106 L6,0 L6,0 Z"/></defs><g id="Deployment-Metrics" fill="none" fill-rule="evenodd" stroke="none" stroke-width="1"><g id="ic-smiley-party"><polyline id="Path-4" stroke="#3CBDF4" stroke-linecap="round" stroke-linejoin="round" stroke-width="2" points="4 18 6 18 6 16 8 16 8 14" transform="translate(6.000000, 16.000000) scale(1, -1) translate(-6.000000, -16.000000)"/><g id="Group" transform="translate(6.000000, 10.000000)"><mask id="mask-2" fill="#fff"><use xlink:href="#path-1"/></mask><use id="Mask" fill="#FBB823" xlink:href="#path-1"/><circle id="Oval" cx="12" cy="12" r="14" fill="url(#linearGradient-3)" mask="url(#mask-2)"/></g><g id="Group-35" transform="translate(11.000000, 18.000000)"><g id="Group-34"><circle id="Oval" cx="4" cy="4" r="4" fill="#FFF"/><circle id="Oval" cx="4" cy="4" r="2.75" fill="#50433E"/><circle id="Oval" cx="5.05" cy="2.75" r="1.25" fill="#FFF"/></g><g id="Group-34" transform="translate(10.000000, 0.000000)"><circle id="Oval" cx="4" cy="4" r="4" fill="#FFF"/><circle id="Oval" cx="4" cy="4" r="2.75" fill="#50433E"/><circle id="Oval" cx="5.05" cy="2.75" r="1.25" fill="#FFF"/></g></g><g id="Oval-2" transform="translate(14.000000, 27.000000)"><mask id="mask-5" fill="#fff"><use xlink:href="#path-4"/></mask><use id="Mask" fill="#50433E" xlink:href="#path-4"/><rect id="Rectangle" width="8" height="2" x="2" y="-1" fill="#FFF" mask="url(#mask-5)" rx="1"/><circle id="Oval" cx="6" cy="8" r="4" fill="#F05B25" mask="url(#mask-5)"/></g><g id="Group-36" transform="translate(15.000000, 7.000000) rotate(-19.000000) translate(-15.000000, -7.000000) translate(9.000000, 0.000000)"><mask id="mask-7" fill="#fff"><use xlink:href="#path-6"/></mask><use id="Mask" fill="#3CBDF4" xlink:href="#path-6"/><path id="Combined-Shape" fill="#2498CA" d="M13.3078149,12.4738335 L14.0570281,14.3282012 L-0.777913621,20.3219067 L-1.52712681,18.467539 L13.3078149,12.4738335 Z M13.3630989,9.31327701 L14.1123121,11.1676447 L-0.722629578,17.1613502 L-1.47184276,15.3069825 L13.3630989,9.31327701 Z M13.418383,6.15272049 L14.1675961,8.0070882 L-0.667345534,14.0007937 L-1.41655872,12.146426 L13.418383,6.15272049 Z M13.473667,2.99216397 L14.2228802,4.84653167 L-0.61206149,10.8402372 L-1.36127468,8.98586946 L13.473667,2.99216397 Z M13.528951,-0.168392556 L14.2781642,1.68597515 L-0.556777446,7.67968065 L-1.30599063,5.82531294 L13.528951,-0.168392556 Z M13.5842351,-3.32894908 L14.3334483,-1.47458137 L-0.501493402,4.51912413 L-1.25070659,2.66475642 L13.5842351,-3.32894908 Z M13.6395191,-6.4895056 L14.3887323,-4.63513789 L-0.446209359,1.35856761 L-1.19542255,-0.495800104 L13.6395191,-6.4895056 Z" mask="url(#mask-7)"/></g><circle id="Oval" cx="29.5" cy="8.5" r="1.5" fill="#3CBDF4"/><circle id="Oval" cx="29" cy="35" r="1" fill="#F05B25"/><circle id="Oval" cx="4" cy="22" r="1" fill="#F05B25"/><polyline id="Path-4" stroke="#3CBDF4" stroke-linecap="round" stroke-linejoin="round" stroke-width="2" points="32 23 34 23 34 21 36 21 36 19"/></g></g></svg>